<?xml version="1.0" encoding="UTF-8"?>
<svg width="24px" height="24px" viewBox="0 0 24 24" version="1.1" xmlns="http://www.w3.org/2000/svg" xmlns:xlink="http://www.w3.org/1999/xlink">
    <title>5EE9521E-4D57-447C-B961-2CF939355D41</title>
    <defs>
        <rect id="path-1" x="0" y="0" width="24" height="24"></rect>
    </defs>
    <g id="Dashboard" stroke="none" stroke-width="1" fill="none" fill-rule="evenodd" opacity="0.699999988">
        <g id="RecruitSuite-Dashboard" transform="translate(-18.000000, -280.000000)">
            <g id="Side-Nav-bar-expanded" transform="translate(0.000000, 72.000000)">
                <g id="msg-copy-3" transform="translate(0.000000, 194.000000)">
                    <g id="edit-/-comment_plus" transform="translate(18.000000, 14.000000)">
                        <mask id="mask-2" fill="white">
                            <use xlink:href="#path-1"></use>
                        </mask>
                        <g id="edit-/-comment_plus-(Background/Mask)"></g>
                        <path d="M13,7 L13,9 L15,9 L15,11 L13,11 L13,13 L11,13 L11,11 L9,11 L9,9 L11,9 L11,7 L13,7 Z M19,3 C20.1030006,3 21,3.89699996 21,5 L21,15 C21,16.1029997 20.1030006,17 19,17 L8.99970007,17 C8.56693935,17 8.14585304,17.1403694 7.7996521,17.4000359 L3,21 L3,5 C3,3.89699996 3.89699996,3 5,3 L19,3 Z M19,15 L19,5 L5,5 L5,17 L7.1336956,15.3999281 C7.4798708,15.1403294 7.90090036,15 8.33360004,15 L19,15 Z" fill="#222222" mask="url(#mask-2)"></path>
                    </g>
                </g>
            </g>
        </g>
    </g>
</svg>